<svg width="23" height="24" viewBox="0 0 23 24" fill="none" xmlns="http://www.w3.org/2000/svg">
<path d="M5.35156 11.8574V3.5957C5.35156 1.47656 6.44531 0.373047 8.53516 0.373047H12.998V7.77539C12.998 8.99609 13.584 9.58203 14.8047 9.58203H22.1289V18.3223C22.1289 20.4316 21.0449 21.5352 18.9453 21.5352H10.8594C11.4355 20.5781 11.7676 19.4551 11.7676 18.2734C11.7676 14.7578 8.87695 11.8672 5.35156 11.8574ZM14.9902 8.15625C14.6191 8.15625 14.4238 7.9707 14.4238 7.58984V0.470703C14.873 0.529297 15.3125 0.861328 15.8008 1.35938L21.1426 6.76953C21.6504 7.28711 21.9727 7.70703 22.0312 8.15625H14.9902ZM5.35156 23.3125C2.59766 23.3125 0.322266 21.0371 0.322266 18.2734C0.322266 15.5195 2.59766 13.2441 5.35156 13.2441C8.11523 13.2441 10.3906 15.5195 10.3906 18.2734C10.3906 21.0273 8.08594 23.3125 5.35156 23.3125ZM2.1582 18.2734C2.16797 18.6836 2.43164 18.9473 2.83203 18.9473H4.67773V20.8027C4.67773 21.2031 4.95117 21.4766 5.35156 21.4766C5.76172 21.4766 6.02539 21.2031 6.02539 20.8027V18.9473H7.87109C8.27148 18.9473 8.54492 18.6836 8.54492 18.2734C8.54492 17.873 8.27148 17.6094 7.87109 17.6094H6.02539V15.7637C6.02539 15.3633 5.76172 15.0898 5.35156 15.0898C4.95117 15.0898 4.67773 15.3633 4.67773 15.7637V17.6094H2.83203C2.43164 17.6094 2.1582 17.873 2.1582 18.2734Z" fill="#212121"/>
</svg>
